<?xml version="1.0" encoding="utf-8"?>
<!-- Generator: Adobe Illustrator 26.3.1, SVG Export Plug-In . SVG Version: 6.00 Build 0)  -->
<svg version="1.1" id="레이어_1" xmlns="http://www.w3.org/2000/svg" xmlns:xlink="http://www.w3.org/1999/xlink" x="0px"
	 y="0px" viewBox="0 0 76 19" style="enable-background:new 0 0 76 19;" xml:space="preserve">
<style type="text/css">
	.st0{fill:#FFFFFF;}
</style>
<g>
	<path class="st0" d="M65.6,15.7c-3.3,0-6-2.7-6-6s2.7-6,6-6c3.3,0,6,2.7,6,6C71.6,13,68.9,15.7,65.6,15.7 M65.6,0.6
		c-5,0-9.1,4.1-9.1,9.1s4.1,9.1,9.1,9.1s9.1-4.1,9.1-9.1S70.6,0.6,65.6,0.6"/>
	<path class="st0" d="M29,15.7c-3,0-5.7-2.7-5.7-6.1c0-3.4,2.8-5.9,5.7-6c2.4,0,4.3,1,5,3.4h3.3c-0.9-4.4-4.2-6.4-8.3-6.4
		c-4.8,0-8.9,3.9-8.9,9.1c0,5,4,9.1,8.9,9.1c4.2,0,7.5-2.1,8.4-6.2h-3.3C33.3,14.8,31.2,15.7,29,15.7"/>
	<path class="st0" d="M10.4,5.1l2.7,7.4H7.8L10.4,5.1z M8.7,0.9L2.1,18.5h3.5l1.1-3h7.5l1.1,3h3.5L12.1,0.9H8.7z"/>
	<path class="st0" d="M50.2,4.8c0.4,0.5,0.7,1.1,0.7,1.9c0,0.8-0.3,1.4-0.7,1.9c-0.5,0.6-1.3,0.9-2.1,0.9c0,0-4,0-4,0V3.9h4.2
		C49,3.9,49.8,4.3,50.2,4.8 M51,11.7c1.8-1,3-2.9,3-5.1c0-3.1-2.4-5.7-5.4-5.7c0,0-0.7,0-0.7,0c-1.4,0-7,0-7,0l0,17.5H44v-5.9h3.8
		l2.9,5.9h3.5h0L51,11.7z"/>
</g>
</svg>
