<?xml version="1.0" encoding="utf-8"?>
<!-- Generator: Adobe Illustrator 26.3.1, SVG Export Plug-In . SVG Version: 6.00 Build 0)  -->
<svg version="1.1" id="레이어_1" xmlns="http://www.w3.org/2000/svg" xmlns:xlink="http://www.w3.org/1999/xlink" x="0px"
	 y="0px" viewBox="0 0 76 19" style="enable-background:new 0 0 76 19;" xml:space="preserve">
<g>
	<path d="M65.57,15.67c-3.32,0-6.01-2.69-6.01-6.01s2.69-6.01,6.01-6.01c3.32,0,6.01,2.69,6.01,6.01
		C71.59,12.98,68.89,15.67,65.57,15.67 M65.57,0.59c-5.01,0-9.07,4.06-9.07,9.07c0,5.01,4.06,9.07,9.07,9.07
		c5.01,0,9.07-4.06,9.07-9.07S70.58,0.59,65.57,0.59"/>
	<path d="M29.02,15.66c-3.02,0-5.69-2.73-5.69-6.05c0-3.43,2.81-5.95,5.69-5.98c2.36-0.02,4.27,0.97,5.04,3.39l3.3,0
		c-0.89-4.36-4.23-6.43-8.34-6.43c-4.81,0-8.85,3.93-8.85,9.07c0,5.01,4.04,9.06,8.85,9.06c4.18,0,7.53-2.14,8.36-6.22l-3.32,0
		C33.35,14.77,31.24,15.66,29.02,15.66"/>
	<path d="M10.43,5.11l2.7,7.39l-5.38,0L10.43,5.11z M8.74,0.93L2.13,18.45l3.5,0l1.07-3l7.49,0l1.08,3l3.5,0L12.12,0.93L8.74,0.93z"
		/>
	<path d="M50.19,4.83c0.41,0.5,0.67,1.13,0.67,1.86c0,0.75-0.29,1.41-0.71,1.91c-0.47,0.56-1.33,0.94-2.1,0.94
		c-0.03,0-4.01,0.01-4.01,0.01l0-5.7l4.18,0C49,3.88,49.75,4.28,50.19,4.83 M51.02,11.74c1.77-0.96,2.97-2.87,2.97-5.08
		c0-3.12-2.42-5.65-5.42-5.73c-0.05,0-0.66,0-0.71,0c-1.41,0-6.98,0.01-6.98,0.01l0.01,17.51l3.16,0l0-5.94l3.82,0l2.91,5.94l3.51,0
		h0.01L51.02,11.74z"/>
</g>
</svg>
